<svg xmlns:xlink="http://www.w3.org/1999/xlink" viewBox="890.4000000000001 4706.4 10964.64 3307.2000000000003" style="max-height: 500px" version="1.1" xml:space="preserve" xmlns="http://www.w3.org/2000/svg" width="10964.64" height="3307.2000000000003">
 <defs>
  <style type="text/css">
   
    .str0 {stroke:#2B2A29;stroke-width:20}
    .fil0 {fill:none}
    .fil1 {fill:black}
   
  </style>
 </defs>
 <g id="Layer_x0020_1">
  <metadata id="CorelCorpID_0Corel-Layer"/>
  <rect height="12700" width="12700" y="10" x="10" class="fil0 str0"/>
  <path d="M2536 4803c859,0 1556,697 1556,1557 0,860 -697,1557 -1556,1557 -860,0 -1557,-697 -1557,-1557 0,-860 697,-1557 1557,-1557zm7452 1760l0 -1570 204 0 0 1570 -204 0zm612 -1366l0 -204 364 0c203,0 404,87 547,230 306,307 306,803 0,1109 -146,146 -334,222 -524,230l-387 1 0 -204 380 0c141,-6 280,-62 387,-170 227,-227 227,-596 0,-823 -107,-107 -246,-164 -387,-169l-380 0zm-3935 -204l-203 0 0 793c0,203 87,404 230,547 306,306 803,306 1109,0 146,-146 222,-334 230,-524l0 -816 -203 0 0 809c-6,141 -63,280 -170,387 -227,227 -596,227 -823,0 -107,-107 -164,-246 -170,-387l0 -809zm-1748 2l-203 0 0 785c0,201 76,401 230,554 145,146 333,223 524,230l585 1 0 -204 -578 0c-141,-6 -281,-62 -388,-170 -113,-113 -170,-262 -170,-411l0 -785zm4663 202l0 -204 -364 0c-202,0 -403,87 -546,230 -307,307 -307,803 0,1109 145,146 333,222 524,230l386 1 0 -204 -380 0c-141,-6 -280,-62 -387,-170 -227,-227 -227,-596 0,-823 107,-107 246,-164 387,-169l380 0zm841 1869l0 397 247 0c110,0 199,-89 199,-199 0,-110 -89,-198 -199,-198l-247 0zm258 469l192 192 -102 0 -191 -192 -157 0 0 192 -72 0 0 -734 319 0c150,0 271,122 271,271 0,147 -116,266 -260,271zm-2918 -469l0 397 246 0c110,0 199,-89 199,-199 0,-110 -89,-198 -199,-198l-246 0zm257 469l192 192 -101 0 -192 -192 -156 0 0 192 -73 0 0 -734 319 0c150,0 271,122 271,271 0,147 -115,266 -260,271zm-870 -469l-189 426 390 0 -189 -426 -12 0zm232 498l-452 0 -73 163 -78 0 324 -734 106 0 325 734 -79 0 -73 -163zm3918 -34l-357 -537 86 0 307 461 307 -461 87 0 -358 537 0 197 -72 0 0 -197zm-1273 -464l0 661 -72 0 0 -661 -211 0 0 -73 494 0 0 73 -211 0zm-800 128c0,-111 91,-201 202,-201l202 0 0 73 -202 0c-71,0 -130,57 -130,128 0,194 332,69 332,332 0,112 -91,201 -202,201l-201 0 0 -72 201 0c72,0 130,-57 130,-129 0,-193 -332,-69 -332,-332zm-218 533l0 -734 72 0 0 734 -72 0zm-354 -661l0 661 -72 0 0 -661 -211 0 0 -73 494 0 0 73 -211 0zm-2567 0l0 258 273 0 0 72 -273 0 0 259 330 0 0 72 -403 0 0 -734 403 0 0 73 -330 0zm-343 330l-350 0 0 331 -72 0 0 -734 72 0 0 331 350 0 0 -331 72 0 0 734 -72 0 0 -331zm-746 -330l0 661 -72 0 0 -661 -211 0 0 -73 494 0 0 73 -211 0zm-2461 -898c106,0 191,86 191,192 0,106 -85,192 -191,192 -106,0 -192,-86 -192,-192 0,-106 86,-192 192,-192zm646 593l184 0 0 -523c0,-181 -70,-362 -208,-500 -131,-131 -301,-200 -473,-207l-550 -1 0 184 544 0c127,5 253,56 350,153 102,103 153,237 153,371l0 523zm-1293 -802l-183 0 0 523c0,181 69,362 207,500 132,131 301,200 473,207l551 1 0 -184 -545 0c-127,-5 -252,-56 -349,-153 -103,-103 -154,-237 -154,-371l0 -523z" class="fil1"/>
 </g>
</svg>