<?xml version="1.0" encoding="UTF-8"?>
<!DOCTYPE svg PUBLIC "-//W3C//DTD SVG 1.1//EN" "http://www.w3.org/Graphics/SVG/1.1/DTD/svg11.dtd">
<!-- Creator: CorelDRAW -->
<svg xmlns="http://www.w3.org/2000/svg" xml:space="preserve" width="78.0946in" height="31.7943in" version="1.1" style="shape-rendering:geometricPrecision; text-rendering:geometricPrecision; image-rendering:optimizeQuality; fill-rule:evenodd; clip-rule:evenodd"
viewBox="0 0 78094.65 31794.26"
 xmlns:xlink="http://www.w3.org/1999/xlink"
 xmlns:xodm="http://www.corel.com/coreldraw/odm/2003">
 <defs>
  <style type="text/css">
   <![CDATA[
    .fil0 {fill:#FEFEFE}
    .fil1 {fill:#FEFEFE;fill-rule:nonzero}
   ]]>
  </style>
 </defs>
 <g id="Layer_x0020_1">
  <metadata id="CorelCorpID_0Corel-Layer"/>
  <g id="_1976561082688">
   <path class="fil0" d="M11295.08 0c6238.67,0 11295.76,5057.34 11295.76,11295.58 0,6238.3 -5057.09,11295.39 -11295.76,11295.39 -6238.05,0 -11295.08,-5057.09 -11295.08,-11295.39 0,-6238.24 5057.03,-11295.58 11295.08,-11295.58zm-4692.12 8385.99l-1330.04 0 0 3791.39c0,1314.44 502.21,2628.81 1506.14,3632.8 951.75,951.5 2184.27,1453.96 3431.11,1504.04l3994.87 3.89 0 -1335.22 -3950.28 0c-922.82,-37.87 -1834.41,-407.78 -2537.52,-1110.89 -743.02,-743.08 -1114.28,-1718.82 -1114.28,-2694.63l0 -3791.39zm4692.56 1519.59c767.63,0 1390,622.37 1390,1390 0,767.63 -622.37,1390.06 -1390,1390.06 -767.57,0 -1390,-622.43 -1390,-1390.06 0,-767.63 622.43,-1390 1390,-1390zm4692.37 4299.46l1330.04 0 0 -3791.39c0,-1314.5 -502.21,-2628.81 -1506.14,-3632.8 -951.75,-951.44 -2184.27,-1454.02 -3431.1,-1504.11l-3994.87 -3.83 0 1335.22 3950.28 0c922.82,37.87 1834.35,407.84 2537.52,1110.89 743.02,743.02 1114.28,1718.76 1114.28,2694.63l0 3791.39z"/>
   <polygon class="fil0" points="65376.76,12766.56 65376.76,1373.83 66856.44,1373.83 66856.44,12766.56 "/>
   <path class="fil0" d="M69818.76 2853.52l0 -1479.69 2641.95 0c1468.15,0 2926.67,632.92 3964.83,1671.02 2225.48,2225.17 2225.48,5825.71 0,8050.69 -1054.76,1054.63 -2420.26,1611.13 -3801.81,1666.7l-2804.98 4.32 0 -1479.68 2755.51 0c1022.68,-41.82 2032.72,-451.63 2811.7,-1230.92 1646.28,-1646.84 1646.28,-4324.5 0,-5971.52 -778.98,-779.1 -1789.02,-1189.16 -2811.7,-1230.92l-2755.51 0z"/>
   <path class="fil0" d="M41263.73 1373.83l-1479.31 0 0 5758.6c0,1468.33 632.61,2926.92 1670.71,3965.02 2225.22,2225.17 5825.77,2225.17 8051,0 1054.39,-1054.63 1610.88,-2420.26 1666.52,-3801.81l4.19 -5921.81 -1479.62 0 0 5872.46c-41.88,1022.37 -451.63,2032.35 -1230.92,2811.63 -1646.84,1646.35 -4324.5,1646.35 -5971.65,0 -778.98,-779.28 -1189.04,-1789.26 -1230.92,-2811.63l0 -5872.46z"/>
   <path class="fil0" d="M28574.89 1388.7l-1473.7 0 0 5696.49c0,1456.3 556.43,2912.91 1669.04,4025.28 1054.44,1054.14 2420.26,1611.12 3801.81,1666.39l4250.3 4.5 0 -1479.56 -4200.89 0c-1022.62,-41.88 -2032.66,-451.94 -2811.7,-1230.98 -823.39,-823.33 -1234.87,-1904.54 -1234.87,-2985.64l0 -5696.49z"/>
   <path class="fil0" d="M62414.74 2853.52l0 -1479.69 -2642.01 0c-1468.08,0 -2926.67,632.92 -3964.77,1671.02 -2225.23,2225.17 -2225.23,5825.71 0,8050.69 1054.69,1054.63 2420.26,1611.13 3801.81,1666.7l2804.97 4.32 0 -1479.68 -2755.5 0c-1022.44,-41.82 -2032.47,-451.63 -2811.76,-1230.92 -1646.28,-1646.84 -1646.28,-4324.5 0,-5971.52 779.29,-779.1 1789.32,-1189.16 2811.76,-1230.92l2755.5 0z"/>
   <path class="fil0" d="M68518.7 16416.51l0 2885.04 1790.5 0c798.41,0 1442.49,-644.02 1442.49,-1442.43 0,-798.47 -644.08,-1442.61 -1442.49,-1442.61l-1790.5 0zm1868.89 3407.48l1392.77 1393.14 -734.87 0 -1391.42 -1391.66 -1135.37 0 0 1391.66 -523.8 0 0 -5324.73 2314.3 0c1086.71,0 1966.35,879.89 1966.35,1966.72 0,1060.56 -837.76,1923.85 -1887.95,1964.87z"/>
   <path class="fil0" d="M49210.73 16416.51l0 2885.04 1790.19 0c798.41,0 1442.55,-644.02 1442.55,-1442.43 0,-798.47 -644.14,-1442.61 -1442.55,-1442.61l-1790.19 0zm1868.89 3407.48l1392.77 1393.14 -735.19 0 -1391.35 -1391.66 -1135.13 0 0 1391.66 -524.11 0 0 -5324.73 2314.3 0c1087.02,0 1966.66,879.89 1966.66,1966.72 0,1060.56 -837.76,1923.85 -1887.95,1964.87z"/>
   <path class="fil0" d="M44768.24 16416.51l-1372.05 3093.64 2827.49 0 -1371.74 -3093.64 -83.7 0zm1683.6 3617.75l-3283.81 0 -528.92 1182.87 -568.52 0 2356.73 -5324.73 764.98 0 2357.29 5324.73 -568.83 0 -528.92 -1182.87z"/>
   <polygon class="fil0" points="74883.81,19788.28 72291.27,15892.4 72913.45,15892.4 75145.71,19237.83 77371.5,15892.4 78000.4,15892.4 75407.61,19788.28 75407.61,21217.13 74883.81,21217.13 "/>
   <polygon class="fil0" points="65644.58,16416.51 65644.58,21217.13 65120.47,21217.13 65120.47,16416.51 63589.96,16416.51 63589.96,15892.4 67175.09,15892.4 67175.09,16416.51 "/>
   <path class="fil0" d="M59839.35 17351.24c0,-809.63 657.89,-1458.83 1465.56,-1458.83l1465.62 0 0 524.11 -1465.62 0c-519.3,0 -941.69,413.45 -941.69,934.72 0,1403.2 2407.31,499.93 2407.31,2407.06 0,809.57 -657.9,1458.83 -1465.62,1458.83l-1458.83 0 0 -524.11 1458.83 0c519.36,0 941.44,-413.45 941.44,-934.72 0,-1402.89 -2407,-499.93 -2407,-2407.06z"/>
   <polygon class="fil0" points="58252.65,21217.13 58252.65,15892.4 58776.2,15892.4 58776.2,21217.13 "/>
   <polygon class="fil0" points="55689.35,16416.51 55689.35,21217.13 55165.54,21217.13 55165.54,16416.51 53634.73,16416.51 53634.73,15892.4 57219.85,15892.4 57219.85,16416.51 "/>
   <polygon class="fil0" points="37056.18,16416.51 37056.18,18292.75 39038.81,18292.75 39038.81,18816.86 37056.18,18816.86 37056.18,20693.02 39456.46,20693.02 39456.46,21217.13 36532.32,21217.13 36532.32,15892.4 39456.46,15892.4 39456.46,16416.51 "/>
   <polygon class="fil0" points="34566.52,18816.86 32029.62,18816.86 32029.62,21217.13 31505.82,21217.13 31505.82,15892.4 32029.62,15892.4 32029.62,18292.75 34566.52,18292.75 34566.52,15892.4 35090.63,15892.4 35090.63,21217.13 34566.52,21217.13 "/>
   <polygon class="fil0" points="29155.5,16416.51 29155.5,21217.13 28631.7,21217.13 28631.7,16416.51 27100.88,16416.51 27100.88,15892.4 30686.01,15892.4 30686.01,16416.51 "/>
   <path class="fil1" d="M3854.25 29903.7c193.86,34.75 358.42,136.62 493.34,306.29 135.26,169.67 202.72,361.82 202.72,576.47 0,183.64 -47.7,348.88 -142.75,496.06 -95.4,147.18 -233.04,263.36 -412.93,348.2 -180.23,84.83 -389.76,127.08 -628.6,127.08l-1443.89 0 0 -3609.74 1376.44 0c245.99,0 456.88,41.57 633.7,124.7 176.48,83.13 309.7,194.88 399.99,335.25 89.94,140.03 134.92,296.75 134.92,469.83 0,207.83 -55.54,380.91 -166.26,519.23 -110.73,138.67 -259.61,240.88 -446.66,306.63zm-1339.98 -238.83l732.51 0c193.86,0 345.13,-44.29 454.16,-132.53 109.02,-88.24 163.88,-215.67 163.88,-381.59 0,-162.86 -54.85,-290.28 -163.88,-381.93 -109.03,-91.65 -260.3,-137.64 -454.16,-137.64l-732.51 0 0 1033.69zm799.97 1609.82c200.67,0 358.42,-48.38 472.55,-145.48 114.14,-96.76 171.37,-231.68 171.37,-405.09 0,-176.48 -60.65,-316.51 -181.93,-420.43 -120.95,-103.92 -282.1,-156.04 -482.78,-156.04l-779.19 0 0 1127.04 799.97 0zm4572.91 519.57c-335.93,0 -644.95,-78.7 -927.06,-236.44 -282.44,-157.41 -505.6,-377.5 -670.16,-659.6 -164.56,-282.1 -246.67,-599.98 -246.67,-952.94 0,-353.31 82.11,-670.16 246.67,-950.56 164.56,-280.4 387.72,-499.47 670.16,-656.87 282.1,-157.74 591.12,-236.45 927.06,-236.45 339.34,0 650.06,78.7 932.16,236.45 282.1,157.41 504.58,376.48 667.44,656.87 162.51,280.4 243.94,597.25 243.94,950.56 0,352.97 -81.43,670.84 -243.94,952.94 -162.86,282.1 -385.33,502.2 -667.44,659.6 -282.1,157.74 -592.82,236.44 -932.16,236.44zm0 -514.12c238.83,0 451.77,-54.85 638.81,-163.88 186.7,-109.02 333.21,-264.72 438.83,-467.44 105.62,-202.38 158.43,-437.12 158.43,-703.55 0,-266.77 -52.81,-500.49 -158.43,-701.17 -105.62,-201.02 -252.12,-355.01 -438.83,-462.33 -187.04,-107.32 -399.98,-160.81 -638.81,-160.81 -239.17,0 -452.11,53.49 -638.82,160.81 -187.05,107.32 -333.55,261.31 -438.82,462.33 -105.62,200.67 -158.43,434.4 -158.43,701.17 0,266.43 52.81,501.17 158.43,703.55 105.28,202.72 251.78,358.42 438.82,467.44 186.7,109.02 399.65,163.88 638.82,163.88zm5346.3 477.67l-830.97 -1443.9 -451.77 0 0 1443.9 -592.14 0 0 -3609.74 1246.63 0c276.99,0 511.39,48.72 703.55,145.48 192.15,97.1 335.93,226.91 431.33,389.76 95.06,162.52 142.76,344.45 142.76,545.12 0,235.43 -68.48,449.39 -205.1,641.54 -136.96,192.16 -347.18,322.65 -630.98,392.15l893.32 1495.69 -706.62 0zm-1282.74 -1916.45l654.49 0c221.46,0 388.74,-55.54 501.17,-166.26 112.43,-110.73 168.65,-259.61 168.65,-446.66 0,-187.04 -55.19,-333.2 -165.92,-438.82 -111.07,-105.62 -279.04,-158.43 -503.9,-158.43l-654.49 0 0 1210.17zm6702.3 1916.45l-592.14 0 -1781.54 -2695.64 0 2695.64 -592.14 0 0 -3614.85 592.14 0 1781.54 2690.53 0 -2690.53 592.14 0 0 3614.85zm4821.96 36.45c-335.93,0 -644.95,-78.7 -927.05,-236.44 -282.44,-157.41 -505.6,-377.5 -670.16,-659.6 -164.56,-282.1 -246.67,-599.98 -246.67,-952.94 0,-353.31 82.11,-670.16 246.67,-950.56 164.56,-280.4 387.72,-499.47 670.16,-656.87 282.1,-157.74 591.12,-236.45 927.05,-236.45 339.34,0 650.06,78.7 932.16,236.45 282.1,157.41 504.58,376.48 667.44,656.87 162.52,280.4 243.94,597.25 243.94,950.56 0,352.97 -81.43,670.84 -243.94,952.94 -162.85,282.1 -385.33,502.2 -667.44,659.6 -282.1,157.74 -592.82,236.44 -932.16,236.44zm0 -514.12c238.83,0 451.77,-54.85 638.82,-163.88 186.7,-109.02 333.2,-264.72 438.82,-467.44 105.62,-202.38 158.43,-437.12 158.43,-703.55 0,-266.77 -52.81,-500.49 -158.43,-701.17 -105.62,-201.02 -252.12,-355.01 -438.82,-462.33 -187.05,-107.32 -399.98,-160.81 -638.82,-160.81 -239.17,0 -452.11,53.49 -638.81,160.81 -187.05,107.32 -333.55,261.31 -438.83,462.33 -105.62,200.67 -158.43,434.4 -158.43,701.17 0,266.43 52.81,501.17 158.43,703.55 105.28,202.72 251.78,358.42 438.83,467.44 186.7,109.02 399.64,163.88 638.81,163.88zm5595.7 -3132.08l0 483.12 -1532.14 0 0 1064.69 1194.5 0 0 483.12 -1194.5 0 0 1578.82 -592.14 0 0 -3609.74 2124.28 0zm3539.22 0l0 3609.74 -592.14 0 0 -3609.74 592.14 0zm5627.04 0l0 3609.74 -592.14 0 0 -2472.14 -1101.15 2472.14 -410.21 0 -1106.26 -2472.14 0 2472.14 -592.14 0 0 -3609.74 638.82 0 1267.41 2830.56 1261.96 -2830.56 633.71 0zm4001.55 2872.12l-1511.36 0 -259.96 737.62 -618.03 0 1293.31 -3614.85 685.49 0 1293.31 3614.85 -623.15 0 -259.61 -737.62zm-166.26 -482.78l-587.03 -1677.62 -592.14 1677.62 1179.17 0zm5268.62 -1350.54c-93.35,-179.89 -223.16,-315.83 -389.42,-407.48 -166.26,-91.99 -358.42,-137.65 -576.47,-137.65 -239.17,0 -452.11,53.49 -638.82,160.81 -187.04,107.32 -333.55,259.62 -438.82,457.22 -105.62,197.27 -158.43,425.88 -158.43,685.49 0,259.62 52.81,488.91 158.43,688.22 105.28,198.97 251.78,352.29 438.82,459.61 186.7,107.32 399.65,160.81 638.82,160.81 321.96,0 583.28,-89.94 783.96,-269.83 201.02,-180.23 324.01,-424.17 368.98,-732.51l-1355.65 0 0 -472.55 1989.36 0 0 462.33c-38.16,280.4 -137.65,538.31 -298.8,773.74 -161.15,235.43 -370.34,423.15 -628.26,563.52 -258.25,140.37 -544.78,210.21 -859.59,210.21 -339.34,0 -649.38,-78.7 -929.78,-236.11 -280.4,-157.75 -502.88,-376.48 -667.44,-657.22 -164.56,-280.4 -246.67,-597.25 -246.67,-950.22 0,-353.31 82.11,-670.16 246.67,-950.56 164.56,-280.4 387.72,-499.47 670.16,-656.87 282.1,-157.74 591.12,-236.45 927.05,-236.45 384.31,0 726.04,94.37 1025.52,283.13 299.48,188.75 516.84,456.2 651.76,802.35l-711.39 0zm3040.77 -1038.8l0 3609.74 -592.14 0 0 -3609.74 592.14 0zm4790.96 3609.74l-592.14 0 -1781.54 -2695.64 0 2695.64 -592.14 0 0 -3614.85 592.14 0 1781.54 2690.53 0 -2690.53 592.14 0 0 3614.85zm4001.55 -737.62l-1511.36 0 -259.96 737.62 -618.04 0 1293.31 -3614.85 685.5 0 1293.31 3614.85 -623.15 0 -259.61 -737.62zm-166.26 -482.78l-587.03 -1677.62 -592.14 1677.62 1179.17 0zm4988.22 -2389.35l0 483.12 -960.78 0 0 3126.63 -592.14 0 0 -3126.63 -965.89 0 0 -483.12 2518.82 0zm2235.69 0l0 3609.74 -592.14 0 0 -3609.74 592.14 0zm3471.76 3646.2c-335.93,0 -644.95,-78.7 -927.05,-236.44 -282.44,-157.41 -505.6,-377.5 -670.16,-659.6 -164.56,-282.1 -246.67,-599.98 -246.67,-952.94 0,-353.31 82.11,-670.16 246.67,-950.56 164.56,-280.4 387.72,-499.47 670.16,-656.87 282.1,-157.74 591.12,-236.45 927.05,-236.45 339.34,0 650.06,78.7 932.16,236.45 282.1,157.41 504.58,376.48 667.44,656.87 162.52,280.4 243.94,597.25 243.94,950.56 0,352.97 -81.43,670.84 -243.94,952.94 -162.85,282.1 -385.33,502.2 -667.44,659.6 -282.1,157.74 -592.82,236.44 -932.16,236.44zm0 -514.12c238.83,0 451.77,-54.85 638.82,-163.88 186.7,-109.02 333.2,-264.72 438.82,-467.44 105.62,-202.38 158.43,-437.12 158.43,-703.55 0,-266.77 -52.81,-500.49 -158.43,-701.17 -105.62,-201.02 -252.12,-355.01 -438.82,-462.33 -187.05,-107.32 -399.99,-160.81 -638.82,-160.81 -239.17,0 -452.11,53.49 -638.82,160.81 -187.04,107.32 -333.55,261.31 -438.82,462.33 -105.62,200.67 -158.43,434.4 -158.43,701.17 0,266.43 52.81,501.17 158.43,703.55 105.28,202.72 251.78,358.42 438.82,467.44 186.7,109.02 399.65,163.88 638.82,163.88zm6437.23 477.67l-592.14 0 -1781.53 -2695.64 0 2695.64 -592.14 0 0 -3614.85 592.14 0 1781.53 2690.53 0 -2690.53 592.14 0 0 3614.85z"/>
  </g>
 </g>
</svg>
