<?xml version="1.0" encoding="UTF-8"?>
<!DOCTYPE svg PUBLIC "-//W3C//DTD SVG 1.1//EN" "http://www.w3.org/Graphics/SVG/1.1/DTD/svg11.dtd">
<!-- Creator: CorelDRAW 2019 (64-Bit) -->
<svg xmlns="http://www.w3.org/2000/svg" xml:space="preserve" width="201.32mm" height="58.2369mm" version="1.1" style="shape-rendering:geometricPrecision; text-rendering:geometricPrecision; image-rendering:optimizeQuality; fill-rule:evenodd; clip-rule:evenodd"
viewBox="0 0 54034.69 15630.93"
 xmlns:xlink="http://www.w3.org/1999/xlink"
 xmlns:xodm="http://www.corel.com/coreldraw/odm/2003">
 <defs>
  <style type="text/css">
   <![CDATA[
    .fil0 {fill:white}
   ]]>
  </style>
 </defs>
 <g id="Layer_x0020_1">
  <metadata id="CorelCorpID_0Corel-Layer"/>
  <path class="fil0" d="M7815.21 0c4316.64,0 7815.69,3499.24 7815.69,7815.56 0,4316.32 -3499.06,7815.37 -7815.69,7815.37 -4316.18,0 -7815.21,-3499.06 -7815.21,-7815.37 0,-4316.32 3499.03,-7815.56 7815.21,-7815.56zm37419.79 8833.29l0 -7882.74 1023.77 0 0 7882.74 -1023.77 0zm3073.48 -6858.97l0 -1023.77 1828.01 0c1015.77,0 2024.99,437.9 2743.26,1156.22 1539.85,1539.61 1539.85,4030.9 0,5570.35 -729.76,729.76 -1674.59,1114.76 -2630.51,1153.27l-1940.76 2.9 0 -1023.77 1906.57 0c707.59,-28.99 1406.43,-312.47 1945.46,-851.67 1139.05,-1139.45 1139.05,-2992.15 0,-4131.82 -539.03,-539.03 -1237.87,-822.73 -1945.46,-851.72l-1906.57 0zm-19757.59 -1023.77l-1023.55 0 0 3984.44c0,1015.98 437.68,2025.2 1156.01,2743.48 1539.64,1539.66 4030.9,1539.66 5570.53,0 729.6,-729.76 1114.62,-1674.56 1153.11,-2630.51l2.9 -4097.41 -1023.77 0 0 4063.21c-28.99,707.37 -312.47,1406.24 -851.69,1945.46 -1139.45,1139.05 -2992.18,1139.05 -4131.84,0 -539.01,-539.22 -822.71,-1238.09 -851.69,-1945.46l0 -4063.21zm-8779.55 10.31l-1019.69 0 0 3941.46c0,1007.64 385,2015.46 1154.86,2785.08 729.54,729.38 1674.56,1114.78 2630.51,1153.11l2940.83 3.11 0 -1023.77 -2906.64 0c-707.59,-28.99 -1406.43,-312.69 -1945.46,-851.69 -569.74,-569.76 -854.41,-1317.78 -854.41,-2065.84l0 -3941.46zm23414.17 1013.46l0 -1023.77 -1828.04 0c-1015.74,0 -2024.96,437.9 -2743.23,1156.22 -1539.66,1539.61 -1539.66,4030.9 0,5570.35 729.76,729.76 1674.56,1114.76 2630.51,1153.27l1940.76 2.9 0 -1023.77 -1906.57 0c-707.37,-28.99 -1406.27,-312.47 -1945.46,-851.67 -1139.07,-1139.45 -1139.07,-2992.15 0,-4131.82 539.19,-539.03 1238.09,-822.73 1945.46,-851.72l1906.57 0zm4223.42 9384.48l0 1996.22 1238.84 0c552.45,0 998.11,-445.68 998.11,-998.11 0,-552.43 -445.66,-998.11 -998.11,-998.11l-1238.84 0zm1293.11 2357.7l963.67 963.86 -508.46 0 -962.73 -962.89 -785.59 0 0 962.89 -362.45 0 0 -3684.2 1601.29 0c751.96,0 1360.59,608.82 1360.59,1360.75 0,733.84 -579.67,1331.17 -1306.32,1359.59zm-14652.5 -2357.7l0 1996.22 1238.62 0c552.43,0 998.11,-445.68 998.11,-998.11 0,-552.43 -445.68,-998.11 -998.11,-998.11l-1238.62 0zm1293.08 2357.7l963.67 963.86 -508.68 0 -962.71 -962.89 -785.37 0 0 962.89 -362.69 0 0 -3684.2 1601.32 0c752.14,0 1360.77,608.82 1360.77,1360.75 0,733.84 -579.67,1331.17 -1306.32,1359.59zm-4366.94 -2357.7l-949.31 2140.48 1956.36 0 -949.1 -2140.48 -57.95 0zm1164.92 2503.12l-2272.13 0 -365.94 818.44 -393.4 0 1630.65 -3684.2 529.29 0 1631.06 3684.2 -393.56 0 -365.97 -818.44zm19672.4 -170.14l-1793.76 -2695.62 430.46 0 1544.52 2314.68 1540.07 -2314.68 435.16 0 -1794 2695.62 0 988.58 -362.45 0 0 -988.58zm-6392.73 -2332.98l0 3321.56 -362.61 0 0 -3321.56 -1058.96 0 0 -362.64 2480.58 0 0 362.64 -1059.01 0zm-4016.72 646.74c0,-560.21 455.21,-1009.38 1014.08,-1009.38l1014.05 0 0 362.64 -1014.05 0c-359.36,0 -651.63,286.04 -651.63,646.74 0,970.89 1665.68,345.92 1665.68,1665.41 0,560.24 -455.21,1009.41 -1014.05,1009.41l-1009.38 0 0 -362.64 1009.38 0c359.34,0 651.39,-286.04 651.39,-646.77 0,-970.65 -1665.46,-345.89 -1665.46,-1665.41zm-1097.85 2674.82l0 -3684.2 362.26 0 0 3684.2 -362.26 0zm-1773.55 -3321.56l0 3321.56 -362.48 0 0 -3321.56 -1059.14 0 0 -362.64 2480.58 0 0 362.64 -1058.96 0zm-12892.55 0l0 1298.16 1371.86 0 0 362.61 -1371.86 0 0 1298.16 1660.79 0 0 362.64 -2023.24 0 0 -3684.2 2023.24 0 0 362.64 -1660.79 0zm-1722.63 1660.77l-1755.27 0 0 1660.79 -362.45 0 0 -3684.2 362.45 0 0 1660.79 1755.27 0 0 -1660.79 362.67 0 0 3684.2 -362.67 0 0 -1660.79zm-3743.92 -1660.77l0 3321.56 -362.42 0 0 -3321.56 -1059.17 0 0 -362.64 2480.58 0 0 362.64 -1058.98 0zm-12357.55 -4505c531.14,0 961.77,430.65 961.77,961.77 0,531.11 -430.62,961.77 -961.77,961.77 -531.09,0 -961.74,-430.65 -961.74,-961.77 0,-531.11 430.65,-961.77 961.74,-961.77zm3246.7 2974.79l920.3 0 0 -2623.29c0,-909.48 -347.53,-1818.91 -1042.15,-2513.54 -658.55,-658.36 -1511.32,-1006.03 -2373.99,-1040.7l-2764.12 -2.71 0 923.9 2733.22 0c638.5,26.17 1269.22,282.17 1755.76,768.65 514.1,514.1 770.99,1189.29 770.99,1864.4l0 2623.29zm-6493.57 -4026.23l-920.27 0 0 2623.34c0,909.43 347.53,1818.88 1042.13,2513.54 658.55,658.34 1511.32,1006.03 2373.99,1040.65l2764.12 2.74 0 -923.92 -2733.22 0c-638.5,-26.17 -1269.22,-282.12 -1755.73,-768.65 -514.1,-514.1 -771.01,-1189.24 -771.01,-1864.35l0 -2623.34z"/>
 </g>
</svg>
