<?xml version="1.0" encoding="UTF-8"?>
<!DOCTYPE svg PUBLIC "-//W3C//DTD SVG 1.1//EN" "http://www.w3.org/Graphics/SVG/1.1/DTD/svg11.dtd">
<!-- Creator: CorelDRAW 2019 (64-Bit) -->
<svg xmlns="http://www.w3.org/2000/svg" xml:space="preserve" width="51.1077mm" height="51.1078mm" version="1.1" style="shape-rendering:geometricPrecision; text-rendering:geometricPrecision; image-rendering:optimizeQuality; fill-rule:evenodd; clip-rule:evenodd"
viewBox="0 0 3326.53 3326.54"
 xmlns:xlink="http://www.w3.org/1999/xlink"
 xmlns:xodm="http://www.corel.com/coreldraw/odm/2003">
 <defs>
  <style type="text/css">
   <![CDATA[
    .fil0 {fill:white}
   ]]>
  </style>
 </defs>
 <g id="Layer_x0020_1">
  <metadata id="CorelCorpID_0Corel-Layer"/>
  <path class="fil0" d="M1663.22 0c918.65,0 1663.32,744.7 1663.32,1663.29 0,918.58 -744.67,1663.25 -1663.32,1663.25 -918.56,0 -1663.22,-744.67 -1663.22,-1663.25 0,-918.59 744.65,-1663.29 1663.22,-1663.29zm0.06 1458.6c113.04,0 204.68,91.65 204.68,204.68 0,113.03 -91.64,204.68 -204.68,204.68 -113.02,0 -204.67,-91.66 -204.67,-204.68 0,-113.03 91.65,-204.68 204.67,-204.68zm690.96 633.09l195.85 0 0 -558.28c0,-193.55 -73.96,-387.1 -221.78,-534.93 -140.15,-140.11 -321.64,-214.1 -505.23,-221.48l-588.25 -0.58 0 196.62 581.68 0c135.89,5.57 270.11,60.05 373.65,163.59 109.41,109.41 164.08,253.1 164.08,396.78l0 558.28zm-1381.95 -856.85l-195.85 0 0 558.29c0,193.54 73.96,387.09 221.79,534.92 140.15,140.1 321.63,214.1 505.22,221.47l588.25 0.58 0 -196.62 -581.68 0c-135.89,-5.57 -270.11,-60.04 -373.65,-163.59 -109.41,-109.41 -164.08,-253.09 -164.08,-396.77l0 -558.29z"/>
 </g>
</svg>
